{
.appVersion = "3133";
.formatVersion = 3;
DisplayStrings = (
"·"
);
date = "2022-10-13 19:52:38 +0000";
familyName = "New Font";
fontMaster = (
{
id = m01;
metricValues = (
{
over = 16;
pos = 800;
},
{
over = 16;
pos = 700;
},
{
over = 16;
pos = 435;
},
{
over = -16;
},
{
over = -16;
pos = -200;
},
{
}
);
name = Regular;
visible = 1;
}
);
glyphs = (
{
glyphname = A;
lastChange = "2022-11-18 15:11:34 +0000";
layers = (
{
hints = (
{
name = _corner.leftSerif;
origin = (2,3);
type = Corner;
},
{
name = _corner.leftSerif;
origin = (0,3);
scale = (0.8,1);
type = Corner;
},
{
name = _corner.rightSerif;
options = 1;
origin = (0,0);
type = Corner;
},
{
name = _corner.rightSerif;
options = 1;
origin = (2,0);
scale = (0.8,1);
type = Corner;
}
);
layerId = m01;
shapes = (
{
closed = 1;
nodes = (
(164,0,l),
(411,705,l),
(365,705,l),
(118,0,l)
);
},
{
closed = 1;
nodes = (
(499,224,l),
(499,267,l),
(239,267,l),
(239,224,l)
);
},
{
closed = 1;
nodes = (
(649,0,l),
(411,705,l),
(370,597,l),
(559,0,l)
);
},
{
closed = 1;
nodes = (
(363,720,o),
(367,720,o),
(373,720,c),
(411,705,l),
(365,705,l),
(366,709,o),
(366,710,o),
(363,714,c)
);
}
);
width = 772;
}
);
metricLeft = O;
metricRight = O;
unicode = 65;
},
{
glyphname = B;
lastChange = "2022-11-18 16:04:32 +0000";
layers = (
{
layerId = m01;
shapes = (
{
closed = 1;
nodes = (
(445,0,ls),
(535,0,o),
(634,96,o),
(634,173,qs),
(634,237,o),
(583,322,o),
(519,362,o),
(503,362,q),
(516,362,o),
(560,401,o),
(593,472,o),
(593,519,qs),
(593,568,o),
(544,651,o),
(461,700,o),
(412,700,qs),
(125,700,l),
(125,0,l)
);
},
{
pos = (125,0);
ref = SerifBottomLeft;
},
{
closed = 1;
nodes = (
(268,42,o),
(233,55,o),
(222,84,o),
(222,115,qs),
(222,296,ls),
(222,317,o),
(225,330,o),
(237,333,o),
(256,333,qs),
(379,333,ls),
(446,333,o),
(537,248,o),
(537,163,qs),
(537,115,o),
(482,42,o),
(435,42,qs),
(306,42,ls)
);
},
{
angle = 180;
pos = (125,700);
ref = SerifBottomRight;
},
{
closed = 1;
nodes = (
(234,375,o),
(225,376,o),
(222,390,o),
(222,412,qs),
(222,577,ls),
(222,612,o),
(233,645,o),
(268,658,o),
(306,658,qs),
(363,658,ls),
(499,658,o),
(499,511,qs),
(499,459,o),
(452,375,o),
(412,375,qs),
(256,375,ls)
);
}
);
width = 679;
}
);
metricLeft = H;
metricRight = O;
unicode = 66;
},
{
glyphname = C;
lastChange = "2022-11-18 17:37:55 +0000";
layers = (
{
layerId = m01;
shapes = (
{
closed = 1;
nodes = (
(527,-15,o),
(606,87,o),
(619,124,c),
(585,139,l),
(562,92,o),
(489,27,o),
(406,27,cs),
(262,27,o),
(167,152,o),
(167,331,cs),
(167,508,o),
(269,673,o),
(381,673,cs),
(479,673,o),
(519,627,o),
(531,614,cs),
(552,591,o),
(565,559,o),
(565,522,c),
(592,522,l),
(592,557,o),
(590,667,o),
(590,700,c),
(563,700,l),
(563,671,o),
(559,665,o),
(536,665,cs),
(516,665,o),
(464,715,o),
(381,715,cs),
(227,715,o),
(45,543,o),
(45,342,cs),
(45,139,o),
(193,-15,o),
(382,-15,cs)
);
}
);
width = 639;
}
);
metricLeft = O;
metricRight = H;
unicode = 67;
},
{
glyphname = D;
lastChange = "2022-11-18 02:46:37 +0000";
layers = (
{
layerId = m01;
shapes = (
{
closed = 1;
nodes = (
(221,0,l),
(390,0,l),
(511,0,o),
(680,158,o),
(680,351,c),
(680,543,o),
(536,700,o),
(366,700,c),
(331,700,l),
(221,700,l),
(185,700,l),
(125,700,l),
(125,0,l)
);
},
{
closed = 1;
nodes = (
(233,37,o),
(221,61,o),
(221,122,c),
(221,592,l),
(221,652,o),
(233,665,o),
(306,665,c),
(331,665,l),
(499,665,o),
(573,493,o),
(573,341,cs),
(573,165,o),
(479,37,o),
(355,37,c),
(306,37,l)
);
},
{
angle = 180;
pos = (125,700);
ref = SerifBottomRight;
},
{
pos = (125,0);
ref = SerifBottomLeft;
}
);
width = 725;
}
);
metricLeft = H;
metricRight = O;
unicode = 68;
},
{
glyphname = E;
lastChange = "2022-11-18 17:37:52 +0000";
layers = (
{
layerId = m01;
shapes = (
{
closed = 1;
nodes = (
(494,0,l),
(494,42,l),
(306,42,ls),
(235,42,o),
(222,63,o),
(222,121,cs),
(222,292,ls),
(222,332,o),
(222,332,o),
(262,332,cs),
(368,332,ls),
(451,332,o),
(455,298,o),
(457,248,c),
(484,248,l),
(484,298,o),
(482,307,o),
(482,332,cs),
(482,374,ls),
(482,399,o),
(484,409,o),
(484,457,c),
(457,457,l),
(455,409,o),
(451,374,o),
(368,374,cs),
(262,374,ls),
(222,374,o),
(222,374,o),
(222,415,cs),
(222,577,ls),
(222,636,o),
(235,658,o),
(306,658,cs),
(471,658,l),
(471,700,l),
(125,700,l),
(125,0,l)
);
},
{
pos = (494,0);
ref = SerifUpRight;
},
{
pos = (125,0);
ref = SerifBottomLeft;
},
{
angle = 180;
pos = (125,700);
ref = SerifBottomRight;
},
{
pos = (471,700);
ref = SerifDownEF;
}
);
width = 627;
}
);
metricLeft = H;
metricRight = H;
unicode = 69;
},
{
glyphname = F;
lastChange = "2022-11-18 17:37:49 +0000";
layers = (
{
layerId = m01;
shapes = (
{
pos = (455,700);
ref = SerifDownEF;
},
{
pos = (125,0);
ref = SerifBottomLeft;
},
{
angle = 180;
pos = (125,700);
ref = SerifBottomRight;
},
{
pos = (219,0);
ref = SerifBottomRight;
},
{
closed = 1;
nodes = (
(448,332,o),
(452,298,o),
(454,248,c),
(481,248,l),
(481,298,o),
(479,307,o),
(479,332,cs),
(479,374,ls),
(479,399,o),
(481,409,o),
(481,457,c),
(454,457,l),
(452,409,o),
(448,374,o),
(365,374,cs),
(259,374,ls),
(219,374,o),
(219,374,o),
(219,415,cs),
(219,583,l),
(219,641,o),
(232,658,o),
(304,658,cs),
(455,658,l),
(455,700,l),
(125,700,l),
(125,103,l),
(125,0,l),
(219,0,l),
(219,292,ls),
(219,332,o),
(219,332,o),
(259,332,cs),
(365,332,ls)
);
}
);
width = 602;
}
);
metricLeft = H;
metricRight = H;
unicode = 70;
},
{
glyphname = G;
lastChange = "2022-11-18 17:05:58 +0000";
layers = (
{
layerId = m01;
shapes = (
{
closed = 1;
nodes = (
(578,627,o),
(578,522,c),
(605,522,l),
(605,557,o),
(603,667,o),
(603,700,c),
(576,700,l),
(576,671,o),
(572,665,o),
(549,665,cs),
(504,665,o),
(487,715,o),
(378,715,cs),
(204,715,o),
(45,545,o),
(45,341,cs),
(45,142,o),
(198,-16,o),
(375,-16,cs),
(508,-16,o),
(523,17,o),
(558,18,cs),
(566,18,o),
(577,16,o),
(593,11,c),
(593,200,ls),
(593,219,o),
(593,243,o),
(628,243,c),
(628,270,l),
(426,270,l),
(426,243,l),
(496,243,o),
(497,225,o),
(497,189,cs),
(497,93,ls),
(497,69,o),
(472,26,o),
(391,26,cs),
(247,26,o),
(156,155,o),
(156,330,cs),
(156,469,o),
(222,672,o),
(378,672,cs),
(483,672,o)
);
}
);
width = 673;
}
);
metricLeft = O;
metricRight = O;
unicode = 71;
},
{
glyphname = H;
lastChange = "2022-11-18 02:37:29 +0000";
layers = (
{
layerId = m01;
shapes = (
{
closed = 1;
nodes = (
(222,0,l),
(222,301,l),
(222,344,o),
(222,344,o),
(258,344,cs),
(559,344,ls),
(595,344,o),
(595,344,o),
(595,301,cs),
(595,0,l),
(692,0,l),
(692,700,l),
(595,700,l),
(595,422,l),
(595,386,o),
(595,386,o),
(559,386,cs),
(258,386,ls),
(222,386,o),
(222,386,o),
(222,422,c),
(222,700,l),
(125,700,l),
(125,0,l)
);
},
{
pos = (125,0);
ref = SerifBottomLeft;
},
{
pos = (692,0);
ref = SerifBottomRight;
},
{
pos = (222,0);
ref = SerifBottomRight;
},
{
pos = (595,0);
ref = SerifBottomLeft;
},
{
angle = 180;
pos = (125,700);
ref = SerifBottomRight;
},
{
angle = 180;
pos = (595,700);
ref = SerifBottomRight;
},
{
angle = 180;
pos = (222,700);
ref = SerifBottomLeft;
},
{
angle = 180;
pos = (692,700);
ref = SerifBottomLeft;
}
);
width = 808;
}
);
metricLeft = H;
metricRight = H;
unicode = 72;
},
{
glyphname = I;
lastChange = "2022-11-18 02:40:54 +0000";
layers = (
{
layerId = m01;
shapes = (
{
closed = 1;
nodes = (
(223,700,l),
(125,700,l),
(125,0,l),
(223,0,l)
);
},
{
pos = (223,0);
ref = SerifBottomRight;
},
{
angle = 180;
pos = (125,700);
ref = SerifBottomRight;
},
{
pos = (125,0);
ref = SerifBottomLeft;
},
{
angle = 180;
pos = (223,700);
ref = SerifBottomLeft;
}
);
width = 339;
}
);
metricLeft = H;
metricRight = H;
unicode = 73;
},
{
glyphname = J;
lastChange = "2022-11-18 15:27:25 +0000";
layers = (
{
layerId = m01;
shapes = (
{
angle = 180;
pos = (360,700);
ref = SerifBottomLeft;
},
{
angle = 180;
pos = (263,700);
ref = SerifBottomRight;
},
{
closed = 1;
nodes = (
(263,-139,o),
(253,-176,o),
(188,-176,cs),
(150,-176,o),
(125,-145,o),
(120,-114,cs),
(117,-84,o),
(101,-60,o),
(70,-65,cs),
(45,-68,o),
(27,-89,o),
(29,-115,cs),
(37,-173,o),
(118,-221,o),
(194,-221,cs),
(286,-221,o),
(360,-177,o),
(360,-69,cs),
(360,700,l),
(263,700,l),
(263,-86,ls)
);
}
);
width = 476;
}
);
metricLeft = H;
metricRight = H;
unicode = 74;
},
{
glyphname = K;
lastChange = "2022-11-18 15:29:07 +0000";
layers = (
{
annotations = (
{
pos = (85,268);
text = "watch width here ";
type = Text;
},
{
pos = (97,294);
type = Arrow;
}
);
hints = (
{
name = _corner.leftSerif;
origin = (0,12);
type = Corner;
},
{
name = _corner.rightSerif;
options = 1;
origin = (0,13);
type = Corner;
},
{
name = _corner.rightSerif;
options = 1;
origin = (0,10);
scale = (0.7,1);
type = Corner;
}
);
layerId = m01;
shapes = (
{
closed = 1;
nodes = (
(222,0,l),
(222,225,l),
(293,320,l),
(412,166,l),
(496,56,o),
(496,46,o),
(515,7,cs),
(517,3,o),
(517,0,o),
(535,0,c),
(661,0,l),
(359,389,l),
(605,700,l),
(551,700,l),
(222,293,l),
(222,700,l),
(125,700,l),
(125,0,l)
);
},
{
pos = (222,0);
ref = SerifBottomRight;
},
{
angle = 180;
pos = (125,700);
ref = SerifBottomRight;
},
{
angle = 180;
pos = (222,700);
ref = SerifBottomLeft;
},
{
pos = (125,0);
ref = SerifBottomLeft;
}
);
width = 775;
}
);
metricLeft = H;
metricRight = O;
unicode = 75;
},
{
glyphname = L;
lastChange = "2022-11-18 02:47:28 +0000";
layers = (
{
layerId = m01;
shapes = (
{
closed = 1;
nodes = (
(494,0,l),
(494,42,l),
(305,42,l),
(234,42,o),
(222,54,o),
(222,113,c),
(222,700,l),
(125,700,l),
(125,0,l)
);
},
{
pos = (125,0);
ref = SerifBottomLeft;
},
{
pos = (494,0);
ref = SerifUpRight;
},
{
angle = 180;
pos = (125,700);
ref = SerifBottomRight;
},
{
angle = 180;
pos = (222,700);
ref = SerifBottomLeft;
}
);
width = 623;
}
);
metricLeft = H;
metricRight = H;
unicode = 76;
},
{
glyphname = M;
lastChange = "2022-11-18 02:43:02 +0000";
layers = (
{
layerId = m01;
shapes = (
{
closed = 1;
nodes = (
(474,-2,l),
(709,583,l),
(709,0,l),
(805,0,l),
(805,700,l),
(698,700,l),
(474,115,l),
(234,700,l),
(125,700,l),
(125,0,l),
(167,0,l),
(167,603,l),
(421,-2,l)
);
},
{
pos = (125,0);
ref = SerifBottomLeft;
},
{
pos = (167,0);
ref = SerifBottomRight;
},
{
pos = (709,0);
ref = SerifBottomLeft;
},
{
angle = 180;
pos = (125,700);
ref = SerifBottomRight;
},
{
pos = (795,0);
ref = SerifBottomRight;
},
{
angle = 180;
pos = (795,700);
ref = SerifBottomLeft;
}
);
width = 911;
}
);
metricLeft = H;
metricRight = H;
unicode = 77;
},
{
glyphname = N;
lastChange = "2022-11-18 18:19:29 +0000";
layers = (
{
hints = (
{
name = _corner.rightSerif;
options = 1;
origin = (0,6);
scale = (0.68,1);
type = Corner;
}
);
layerId = m01;
shapes = (
{
closed = 1;
nodes = (
(611,0,l),
(653,0,l),
(653,700,l),
(611,700,l),
(611,157,l),
(216,700,l),
(101,700,l),
(125,666,l),
(125,0,l),
(167,0,l),
(167,610,l)
);
},
{
pos = (125,0);
ref = SerifBottomLeft;
},
{
pos = (167,0);
ref = SerifBottomRight;
},
{
angle = 180;
pos = (653,700);
ref = SerifBottomLeft;
},
{
angle = 180;
pos = (611,700);
ref = SerifBottomRight;
}
);
width = 769;
}
);
metricLeft = H;
metricRight = H;
unicode = 78;
},
{
glyphname = O;
lastChange = "2022-11-18 02:48:00 +0000";
layers = (
{
layerId = m01;
shapes = (
{
attr = {
fill = 1;
};
closed = 1;
nodes = (
(549,-16,o),
(693,153,o),
(693,356,c),
(693,562,o),
(549,716,o),
(369,716,cs),
(189,716,o),
(45,548,o),
(45,356,c),
(45,139,o),
(189,-16,o),
(369,-16,cs)
);
},
{
attr = {
fill = 1;
};
closed = 1;
nodes = (
(248,10,o),
(163,153,o),
(152,345,cs),
(141,525,o),
(214,667,o),
(344,679,cs),
(490,691,o),
(575,548,o),
(586,367,cs),
(597,189,o),
(524,34,o),
(394,23,cs)
);
}
);
width = 738;
}
);
metricLeft = O;
metricRight = O;
unicode = 79;
},
{
glyphname = P;
lastChange = "2022-11-18 02:48:33 +0000";
layers = (
{
layerId = m01;
shapes = (
{
closed = 1;
nodes = (
(125,0,l),
(222,0,l),
(222,264,l),
(222,288,o),
(234,296,o),
(257,296,c),
(354,296,ls),
(545,296,o),
(596,398,o),
(596,495,cs),
(596,627,o),
(511,700,o),
(415,700,c),
(125,700,l)
);
},
{
closed = 1;
nodes = (
(234,338,o),
(225,348,o),
(225,361,c),
(225,631,l),
(225,653,o),
(231,658,o),
(257,658,c),
(366,658,l),
(464,658,o),
(511,591,o),
(511,520,cs),
(511,431,o),
(473,374,o),
(415,351,cs),
(395,343,o),
(375,338,o),
(349,338,c),
(313,338,o),
(286,338,o),
(257,338,c)
);
},
{
pos = (125,0);
ref = SerifBottomLeft;
},
{
pos = (222,0);
ref = SerifBottomRight;
},
{
angle = 180;
pos = (125,700);
ref = SerifBottomRight;
}
);
width = 641;
}
);
metricLeft = H;
metricRight = O;
unicode = 80;
},
{
glyphname = Q;
lastChange = "2022-11-18 02:48:43 +0000";
layers = (
{
layerId = m01;
shapes = (
{
closed = 1;
nodes = (
(241,22,o),
(164,161,o),
(153,345,cs),
(152,357,o),
(152,369,o),
(152,382,cs),
(152,542,o),
(229,680,o),
(362,680,cs),
(494,680,o),
(572,540,o),
(583,369,cs),
(584,355,o),
(585,341,o),
(585,327,cs),
(585,158,o),
(507,22,o),
(373,22,cs)
);
},
{
closed = 0;
nodes = (
(-36,499,l)
);
},
{
closed = 1;
nodes = (
(597,52,o),
(691,185,o),
(691,357,c),
(703,561,o),
(548,716,o),
(369,716,cs),
(188,716,o),
(46,548,o),
(46,357,c),
(33,153,o),
(156,9,o),
(323,-14,c),
(278,-33,o),
(242,-52,o),
(233,-60,o),
(230,-66,o),
(230,-70,qs),
(229,-87,o),
(248,-89,qs),
(260,-89,o),
(276,-77,o),
(294,-61,o),
(316,-48,o),
(333,-49,qs),
(358,-51,o),
(409,-82,o),
(463,-117,o),
(555,-151,o),
(593,-153,qs),
(617,-154,o),
(660,-139,o),
(683,-124,o),
(709,-84,o),
(712,-63,qs),
(713,-55,o),
(713,-42,o),
(713,-34,q),
(696,-33,l),
(680,-58,o),
(648,-80,o),
(620,-83,qs),
(585,-87,o),
(544,-81,o),
(488,-63,o),
(435,-30,o),
(427,-22,o),
(436,-13,o),
(460,0,q)
);
}
);
width = 758;
}
);
metricLeft = O;
metricRight = O;
unicode = 81;
},
{
glyphname = R;
lastChange = "2022-11-18 16:58:20 +0000";
layers = (
{
hints = (
{
name = _corner.rightSerif;
options = 1;
origin = (4,9);
scale = (0.8,1);
type = Corner;
}
);
layerId = m01;
shapes = (
{
closed = 1;
nodes = (
(222,373,o),
(222,373,o),
(222,399,c),
(222,591,l),
(222,660,o),
(235,664,o),
(304,664,cs),
(365,664,ls),
(448,664,o),
(510,614,o),
(510,543,cs),
(510,482,o),
(474,410,o),
(402,384,cs),
(365,373,o),
(328,373,o),
(328,373,c),
(256,373,ls)
);
},
{
pos = (125,0);
ref = SerifBottomLeft;
},
{
pos = (222,0);
ref = SerifBottomRight;
},
{
angle = 180;
pos = (125,700);
ref = SerifBottomRight;
},
{
closed = 1;
nodes = (
(354,331,o),
(410,221,o),
(452,166,c),
(536,56,o),
(536,46,o),
(555,7,cs),
(557,3,o),
(557,0,o),
(575,0,c),
(701,0,l),
(426,351,l),
(517,352,o),
(594,436,o),
(594,518,cs),
(594,649,o),
(490,700,o),
(412,700,cs),
(125,700,l),
(125,0,l),
(222,0,l),
(222,320,ls),
(222,328,o),
(227,331,o),
(239,331,cs),
(306,331,l)
);
}
);
width = 824;
}
);
metricLeft = H;
metricRight = O;
tags = (
"Clean up"
);
unicode = 82;
},
{
glyphname = S;
lastChange = "2022-11-18 17:37:47 +0000";
layers = (
{
layerId = m01;
shapes = (
{
closed = 1;
nodes = (
(472,615,o),
(472,538,c),
(499,538,l),
(499,573,o),
(497,683,o),
(497,716,c),
(470,716,l),
(470,687,o),
(458,686,o),
(446,686,cs),
(415,686,o),
(390,716,o),
(327,716,cs),
(200,716,o),
(100,630,o),
(100,511,cs),
(100,416,o),
(137,362,o),
(215,323,c),
(378,248,l),
(422,228,o),
(443,200,o),
(443,153,cs),
(443,91,o),
(394,28,o),
(297,28,cs),
(200,28,o),
(72,137,o),
(72,197,c),
(45,197,l),
(45,162,o),
(47,52,o),
(47,19,c),
(74,19,l),
(74,48,o),
(93,52,o),
(106,52,cs),
(134,52,o),
(199,-16,o),
(324,-16,cs),
(459,-16,o),
(545,76,o),
(545,161,cs),
(545,256,o),
(499,295,o),
(444,322,c),
(416,336,o),
(325,382,o),
(275,407,c),
(206,438,o),
(185,478,o),
(185,554,cs),
(185,614,o),
(231,673,o),
(328,674,cs),
(405,675,o)
);
}
);
width = 590;
}
);
metricLeft = O;
metricRight = O;
unicode = 83;
},
{
glyphname = T;
lastChange = "2022-11-18 16:58:43 +0000";
layers = (
{
layerId = m01;
shapes = (
{
closed = 1;
nodes = (
(516,700,l),
(356,700,l),
(259,700,l),
(99,700,l),
(99,658,l),
(234,658,ls),
(259,658,o),
(258,638,o),
(259,624,c),
(259,0,l),
(356,0,l),
(356,624,l),
(357,638,o),
(356,658,o),
(381,658,cs),
(516,658,l)
);
},
{
pos = (356,0);
ref = SerifBottomRight;
},
{
pos = (259,0);
ref = SerifBottomLeft;
},
{
pos = (516,700);
ref = SerifSpur;
scale = (-1,1);
},
{
pos = (99,700);
ref = SerifSpur;
}
);
width = 606;
}
);
metricLeft = H;
metricRight = H;
unicode = 84;
},
{
glyphname = U;
lastChange = "2022-11-18 17:06:44 +0000";
layers = (
{
layerId = m01;
shapes = (
{
closed = 1;
nodes = (
(664,-16,o),
(664,172,o),
(664,229,c),
(664,700,l),
(619,700,l),
(619,258,l),
(619,117,o),
(557,40,o),
(415,40,cs),
(292,40,o),
(219,100,o),
(219,253,c),
(219,700,l),
(125,700,l),
(124,678,o),
(125,309,o),
(125,223,c),
(125,109,o),
(170,-16,o),
(414,-16,cs)
);
},
{
angle = 180;
pos = (219,700);
ref = SerifBottomLeft;
},
{
angle = 180;
pos = (619,700);
ref = SerifBottomRight;
},
{
angle = 180;
pos = (125,700);
ref = SerifBottomRight;
},
{
angle = 180;
pos = (664,700);
ref = SerifBottomLeft;
}
);
width = 780;
}
);
metricLeft = H;
metricRight = H;
unicode = 85;
},
{
glyphname = V;
lastChange = "2022-11-18 02:43:02 +0000";
layers = (
{
hints = (
{
name = _corner.rightSerif;
options = 1;
origin = (0,0);
type = Corner;
},
{
name = _corner.leftSerif;
origin = (0,3);
type = Corner;
},
{
name = _corner.rightSerif;
options = 1;
origin = (1,0);
type = Corner;
},
{
name = _corner.leftSerif;
origin = (1,3);
type = Corner;
}
);
layerId = m01;
shapes = (
{
closed = 1;
nodes = (
(127,700,l),
(380,-15,l),
(443,83,l),
(240,700,l)
);
},
{
closed = 1;
nodes = (
(630,700,l),
(380,-15,l),
(424,-15,l),
(677,700,l)
);
}
);
width = 788;
}
);
metricLeft = H;
metricRight = H;
unicode = 86;
},
{
glyphname = W;
lastChange = "2022-11-18 17:10:48 +0000";
layers = (
{
hints = (
{
name = _corner.leftSerif;
origin = (0,8);
scale = (0.87,1);
type = Corner;
},
{
name = _corner.rightSerif;
options = 1;
origin = (0,5);
type = Corner;
},
{
name = _corner.leftSerif;
origin = (0,4);
scale = (0.85,1);
type = Corner;
},
{
name = _corner.rightSerif;
options = 1;
origin = (0,22);
scale = (0.87,1);
type = Corner;
}
);
layerId = m01;
shapes = (
{
closed = 1;
nodes = (
(428,0,l),
(540,307,l),
(643,0,l),
(708,0,l),
(957,700,l),
(912,700,l),
(704,105,l),
(589,454,l),
(677,700,l),
(645,700,l),
(601,700,ls),
(579,700,o),
(555,700,o),
(534,700,cs),
(497,700,l),
(408,700,ls),
(388,700,o),
(350,699,o),
(320,699,cs),
(284,699,o),
(241,700,o),
(216,700,cs),
(114,700,l),
(363,0,l)
);
},
{
closed = 1;
nodes = (
(236,678,o),
(256,675,o),
(320,675,cs),
(371,675,o),
(405,678,o),
(433,598,cs),
(515,362,l),
(424,105,l),
(263,597,ls)
);
},
{
closed = 1;
nodes = (
(522,662,o),
(531,673,o),
(568,673,cs),
(606,673,o),
(618,662,o),
(596,598,cs),
(568,518,l),
(543,597,ls)
);
}
);
width = 1054;
}
);
metricLeft = H;
metricRight = H;
unicode = 87;
},
{
glyphname = X;
lastChange = "2022-11-18 17:39:45 +0000";
layers = (
{
hints = (
{
name = _corner.leftSerif;
origin = (0,2);
type = Corner;
},
{
name = _corner.rightSerif;
options = 1;
origin = (0,3);
scale = (0.6,1);
type = Corner;
},
{
name = _corner.rightSerif;
options = 1;
origin = (0,0);
type = Corner;
},
{
name = _corner.leftSerif;
origin = (0,11);
scale = (0.8,1);
type = Corner;
},
{
name = _corner.rightSerif;
options = 1;
origin = (0,6);
type = Corner;
},
{
name = _corner.leftSerif;
origin = (0,5);
type = Corner;
},
{
name = _corner.leftSerif;
origin = (0,8);
type = Corner;
},
{
name = _corner.rightSerif;
options = 1;
origin = (0,9);
scale = (0.7,1);
type = Corner;
}
);
layerId = m01;
shapes = (
{
closed = 1;
nodes = (
(200,1,l),
(412,307,l),
(632,0,l),
(752,0,l),
(481,378,l),
(703,700,l),
(629,700,l),
(439,423,l),
(236,700,l),
(116,700,l),
(365,356,l),
(118,0,l)
);
}
);
width = 856;
}
);
metricLeft = O;
metricRight = O;
unicode = 88;
},
{
glyphname = Y;
lastChange = "2022-11-18 02:42:51 +0000";
layers = (
{
hints = (
{
name = _corner.leftSerif;
origin = (0,3);
scale = (0.73,1);
type = Corner;
},
{
name = _corner.rightSerif;
options = 1;
origin = (0,4);
type = Corner;
},
{
name = _corner.leftSerif;
origin = (0,6);
type = Corner;
},
{
name = _corner.rightSerif;
options = 1;
origin = (0,7);
scale = (0.72,1);
type = Corner;
}
);
layerId = m01;
shapes = (
{
closed = 1;
nodes = (
(335,0,l),
(432,0,l),
(432,312,l),
(641,700,l),
(594,700,l),
(403,361,l),
(213,700,l),
(116,700,l),
(335,312,l)
);
},
{
pos = (432,0);
ref = SerifBottomRight;
},
{
pos = (335,0);
ref = SerifBottomLeft;
}
);
width = 752;
}
);
metricLeft = O;
metricRight = O;
unicode = 89;
},
{
glyphname = Z;
lastChange = "2022-11-18 18:19:47 +0000";
layers = (
{
layerId = m01;
shapes = (
{
closed = 1;
nodes = (
(50,658,l),
(414,658,l),
(37,47,l),
(37,0,l),
(518,0,l),
(518,42,l),
(148,42,l),
(528,658,l),
(528,700,l),
(50,700,l)
);
},
{
angle = 180;
pos = (142,700);
ref = SerifUpRight;
},
{
pos = (447,0);
ref = SerifUpRight;
}
);
width = 580;
}
);
metricLeft = H;
metricRight = H;
unicode = 90;
},
{
color = 9;
glyphname = a;
lastChange = "2022-11-18 20:51:15 +0000";
layers = (
{
annotations = (
{
pos = (306.034,170.207);
type = Text;
}
);
layerId = m01;
shapes = (
{
closed = 1;
nodes = (
(285,13,o),
(314,-4,o),
(356,-4,cs),
(399,-4,o),
(424,13,o),
(442,30,c),
(424,47,l),
(411,33,o),
(401,29,o),
(389,29,cs),
(372,29,o),
(363,71,o),
(363,120,cs),
(363,324,ls),
(363,413,o),
(302,449,o),
(226,449,cs),
(162,449,o),
(92,417,o),
(72,373,cs),
(70,368,o),
(69,363,o),
(69,358,cs),
(69,338,o),
(85,319,o),
(107,319,cs),
(123,319,o),
(136,332,o),
(144,350,cs),
(155,374,o),
(164,412,o),
(220,412,cs),
(274,412,o),
(285,381,o),
(285,338,cs),
(285,288,l),
(128,251,o),
(48,190,o),
(48,96,cs),
(48,19,o),
(117,-8,o),
(171,-8,cs),
(234,-8,o),
(285,40,o),
(285,40,c)
);
},
{
closed = 1;
nodes = (
(126,173,o),
(160,199,o),
(285,242,c),
(285,71,l),
(275,65,o),
(240,34,o),
(184,34,cs),
(154,34,o),
(126,61,o),
(126,105,cs)
);
}
);
width = 466;
}
);
metricLeft = o;
metricRight = n;
unicode = 97;
},
{
glyphname = b;
lastChange = "2022-11-18 18:28:57 +0000";
layers = (
{
layerId = m01;
shapes = (
{
closed = 1;
nodes = (
(188,761,o),
(184,761,o),
(178,761,c),
(115,748,o),
(122,748,o),
(54,748,c),
(54,721,l),
(110,721,o),
(110,712,o),
(110,677,cs),
(110,145,ls),
(110,67,o),
(91,25,o),
(35,25,c),
(35,-2,l),
(69,-2,o),
(117,0,o),
(176,0,cs),
(181,0,o),
(184,3,o),
(184,8,cs),
(184,21,l),
(197,4,o),
(235,-16,o),
(280,-16,cs),
(418,-16,o),
(490,85,o),
(490,201,cs),
(490,323,o),
(412,452,o),
(280,452,cs),
(247,452,o),
(216,444,o),
(188,430,c),
(188,755,ls)
);
},
{
closed = 1;
nodes = (
(240,9,o),
(198,37,o),
(185,73,c),
(188,358,ls),
(188,404,o),
(235,421,o),
(283,421,cs),
(390,421,o),
(405,312,o),
(405,226,cs),
(405,152,o),
(378,9,o),
(280,9,cs)
);
}
);
width = 538;
}
);
metricLeft = n;
metricRight = o;
unicode = 98;
},
{
glyphname = c;
lastChange = "2022-11-18 18:29:00 +0000";
layers = (
{
layerId = m01;
shapes = (
{
closed = 1;
nodes = (
(365,-16,o),
(406,25,o),
(438,56,c),
(420,73,l),
(399,54,o),
(366,19,o),
(294,19,cs),
(190,19,o),
(145,92,o),
(145,179,cs),
(145,296,o),
(164,405,o),
(271,405,cs),
(306,405,o),
(333,398,o),
(337,358,c),
(337,332,o),
(356,309,o),
(378,309,cs),
(401,309,o),
(419,332,o),
(419,358,cs),
(419,405,o),
(339,435,o),
(284,435,cs),
(145,435,o),
(48,323,o),
(48,204,cs),
(48,72,o),
(143,-16,o),
(278,-16,cs)
);
}
);
width = 486;
}
);
metricLeft = o;
metricRight = o;
unicode = 99;
},
{
glyphname = d;
lastChange = "2022-11-18 18:29:03 +0000";
layers = (
{
layerId = m01;
shapes = (
{
closed = 1;
nodes = (
(503,25,l),
(447,25,o),
(428,65,o),
(428,145,cs),
(428,755,ls),
(428,761,o),
(423,761,o),
(417,761,c),
(356,748,o),
(359,748,o),
(291,748,c),
(291,721,l),
(347,721,o),
(350,713,o),
(350,677,cs),
(350,430,l),
(322,444,o),
(291,452,o),
(258,452,cs),
(126,452,o),
(48,323,o),
(48,201,cs),
(48,85,o),
(120,-16,o),
(258,-16,cs),
(303,-16,o),
(341,4,o),
(354,21,c),
(354,5,ls),
(354,1,o),
(356,0,o),
(361,0,cs),
(420,0,o),
(469,-2,o),
(503,-2,c)
);
},
{
closed = 1;
nodes = (
(160,9,o),
(133,152,o),
(133,226,cs),
(133,312,o),
(148,421,o),
(255,421,cs),
(303,421,o),
(350,404,o),
(350,358,cs),
(353,73,l),
(340,37,o),
(298,9,o),
(258,9,cs)
);
}
);
width = 527;
}
);
metricLeft = o;
metricRight = n;
unicode = 100;
},
{
glyphname = e;
lastChange = "2022-11-18 18:29:06 +0000";
layers = (
{
layerId = m01;
shapes = (
{
closed = 1;
nodes = (
(136,271,o),
(136,278,cs),
(136,324,o),
(178,420,o),
(252,420,cs),
(316,420,o),
(348,334,o),
(348,270,cs),
(348,267,o),
(346,265,o),
(343,265,cs),
(278,265,o),
(211,265,o),
(146,265,cs),
(138,265,o)
);
},
{
closed = 1;
nodes = (
(350,-14,o),
(395,27,o),
(427,58,c),
(409,75,l),
(385,58,o),
(353,21,o),
(281,21,cs),
(127,21,o),
(133,171,o),
(133,219,cs),
(133,230,o),
(139,233,o),
(143,233,cs),
(237,233,o),
(327,233,o),
(421,233,cs),
(426,233,o),
(429,237,o),
(429,242,cs),
(429,315,o),
(395,452,o),
(260,452,cs),
(135,452,o),
(48,335,o),
(48,212,cs),
(48,86,o),
(129,-14,o),
(265,-14,cs)
);
}
);
width = 477;
}
);
metricLeft = o;
metricRight = o;
unicode = 101;
},
{
glyphname = f;
lastChange = "2022-11-18 18:29:08 +0000";
layers = (
{
layerId = m01;
shapes = (
{
closed = 1;
nodes = (
(207,0,l),
(207,417,l),
(207,552,o),
(214,627,o),
(283,627,cs),
(320,627,o),
(322,618,o),
(333,602,cs),
(349,580,o),
(359,566,o),
(383,566,cs),
(401,566,o),
(417,585,o),
(417,604,cs),
(417,645,o),
(325,664,o),
(277,664,cs),
(118,664,o),
(129,492,o),
(129,423,c),
(129,0,l)
);
},
{
pos = (129,0);
ref = LowerSerifBottomLeft;
},
{
pos = (207,0);
ref = LowerSerifBottomRight;
},
{
closed = 1;
nodes = (
(299,423,l),
(299,462,l),
(35,462,l),
(35,423,l)
);
},
{
closed = 0;
nodes = (
(283,627,l)
);
}
);
width = 345;
}
);
metricLeft = n;
metricRight = "=n*-3";
unicode = 102;
},
{
color = 9;
glyphname = g;
lastChange = "2022-11-18 20:51:15 +0000";
layers = (
{
layerId = m01;
shapes = (
{
closed = 1;
nodes = (
(163,351,o),
(178,417,o),
(227,417,cs),
(283,417,o),
(302,343,o),
(302,277,cs),
(302,220,o),
(279,167,o),
(238,167,cs),
(161,167,o),
(163,270,o),
(163,311,cs)
);
},
{
closed = 1;
nodes = (
(130,152,o),
(81,127,o),
(81,88,cs),
(81,69,o),
(85,33,o),
(150,17,c),
(261,-9,l),
(308,-21,o),
(332,-49,o),
(332,-98,cs),
(332,-163,o),
(270,-185,o),
(219,-185,cs),
(164,-185,o),
(111,-151,o),
(111,-86,cs),
(111,-38,o),
(134,-28,o),
(160,-19,c),
(143,-2,o),
(125,-1,o),
(112,-1,cs),
(75,-1,o),
(48,-43,o),
(48,-98,cs),
(48,-173,o),
(132,-216,o),
(222,-216,cs),
(308,-216,o),
(405,-156,o),
(405,-81,cs),
(405,-16,o),
(358,15,o),
(293,33,c),
(185,61,l),
(140,74,o),
(131,80,o),
(131,96,cs),
(131,112,o),
(166,136,o),
(232,136,cs),
(313,136,o),
(379,207,o),
(379,295,cs),
(379,336,o),
(365,372,o),
(342,398,c),
(397,419,o),
(383,381,o),
(407,375,cs),
(427,370,o),
(444,392,o),
(444,413,cs),
(444,425,o),
(438,436,o),
(429,443,cs),
(426,445,o),
(422,447,o),
(417,449,cs),
(381,462,o),
(353,444,o),
(317,421,c),
(293,438,o),
(264,448,o),
(232,448,cs),
(151,448,o),
(85,377,o),
(85,295,cs),
(85,236,o),
(108,187,o),
(167,152,c)
);
}
);
width = 492;
}
);
metricLeft = o;
metricRight = o;
unicode = 103;
},
{
glyphname = h;
lastChange = "2022-11-18 18:29:15 +0000";
layers = (
{
layerId = m01;
shapes = (
{
closed = 1;
nodes = (
(189,0,l),
(189,300,ls),
(189,341,o),
(260,402,o),
(316,402,cs),
(370,402,o),
(405,381,o),
(405,338,cs),
(405,0,l),
(483,0,l),
(483,324,ls),
(483,412,o),
(424,449,o),
(340,449,cs),
(281,449,o),
(228,424,o),
(189,381,c),
(189,755,ls),
(189,761,o),
(185,761,o),
(179,761,c),
(118,748,o),
(123,748,o),
(55,748,c),
(55,731,l),
(111,731,o),
(111,723,o),
(111,687,cs),
(111,0,l)
);
},
{
pos = (111,0);
ref = LowerSerifBottomLeft;
},
{
pos = (189,0);
ref = LowerSerifBottomRight;
},
{
pos = (406,0);
ref = LowerSerifBottomLeft;
},
{
pos = (484,0);
ref = LowerSerifBottomRight;
}
);
width = 584;
}
);
metricLeft = n;
metricRight = n;
unicode = 104;
},
{
glyphname = i;
lastChange = "2022-11-18 18:29:17 +0000";
layers = (
{
layerId = m01;
shapes = (
{
closed = 1;
nodes = (
(189,0,l),
(189,455,ls),
(189,461,o),
(185,461,o),
(179,461,c),
(118,448,o),
(123,448,o),
(55,448,c),
(55,421,l),
(111,421,o),
(111,413,o),
(111,377,cs),
(111,0,l)
);
},
{
pos = (111,0);
ref = LowerSerifBottomLeft;
},
{
pos = (189,0);
ref = LowerSerifBottomRight;
},
{
pos = (48,561);
ref = period;
}
);
width = 289;
}
);
metricLeft = n;
metricRight = n;
unicode = 105;
},
{
glyphname = j;
lastChange = "2022-11-18 18:29:20 +0000";
layers = (
{
layerId = m01;
shapes = (
{
closed = 1;
nodes = (
(231,-141,o),
(220,-172,o),
(166,-172,cs),
(135,-172,o),
(114,-147,o),
(110,-121,cs),
(107,-96,o),
(94,-76,o),
(68,-80,cs),
(48,-83,o),
(33,-100,o),
(35,-122,cs),
(41,-170,o),
(108,-209,o),
(172,-209,cs),
(248,-209,o),
(309,-173,o),
(309,-84,cs),
(309,455,ls),
(309,461,o),
(305,461,o),
(299,461,c),
(238,448,o),
(243,448,o),
(175,448,c),
(175,421,l),
(231,421,o),
(231,413,o),
(231,377,cs),
(231,-98,ls)
);
},
{
pos = (161,561);
ref = period;
}
);
width = 333;
}
);
metricLeft = n;
metricRight = n;
unicode = 106;
},
{
color = 3;
glyphname = k;
lastChange = "2022-11-18 20:50:59 +0000";
layers = (
{
hints = (
{
name = _corner.rightSerif;
options = 1;
origin = (0,0);
scale = (0.7,1);
type = Corner;
},
{
name = _corner.leftSerif;
origin = (0,2);
scale = (0.74,1);
type = Corner;
},
{
name = _corner.rightSerif;
options = 1;
origin = (0,3);
scale = (0.74,1);
type = Corner;
}
);
layerId = m01;
shapes = (
{
closed = 1;
nodes = (
(534,0,l),
(282,265,l),
(431,450,l),
(377,450,l),
(188,213,l),
(188,145,l),
(241,216,l),
(300,153,ls),
(392,54,o),
(397,50,o),
(414,0,c)
);
},
{
pos = (111,0);
ref = LowerSerifBottomLeft;
},
{
pos = (188,0);
ref = LowerSerifBottomRight;
},
{
closed = 1;
nodes = (
(189,0,l),
(189,755,ls),
(189,761,o),
(185,761,o),
(179,761,c),
(118,748,o),
(123,748,o),
(55,748,c),
(55,721,l),
(111,721,o),
(111,713,o),
(111,677,cs),
(111,0,l)
);
}
);
width = 651;
}
);
metricLeft = n;
metricRight = o;
unicode = 107;
},
{
glyphname = l;
lastChange = "2022-11-18 18:29:25 +0000";
layers = (
{
layerId = m01;
shapes = (
{
closed = 1;
nodes = (
(111,0,l),
(189,0,l),
(189,755,l),
(189,761,o),
(185,761,o),
(179,761,c),
(118,748,o),
(123,748,o),
(55,748,c),
(55,721,l),
(111,721,o),
(111,713,o),
(111,677,cs)
);
},
{
pos = (111,0);
ref = LowerSerifBottomLeft;
},
{
pos = (189,0);
ref = LowerSerifBottomRight;
}
);
width = 289;
}
);
metricLeft = n;
metricRight = n;
unicode = 108;
},
{
glyphname = m;
lastChange = "2022-11-18 18:29:28 +0000";
layers = (
{
layerId = m01;
shapes = (
{
closed = 1;
nodes = (
(490,365,o),
(526,403,o),
(577,403,cs),
(628,403,o),
(661,382,o),
(661,339,cs),
(661,1,l),
(739,1,l),
(739,325,ls),
(739,413,o),
(679,450,o),
(601,450,cs),
(522,450,o),
(482,404,o),
(460,368,c),
(448,416,o),
(393,449,o),
(326,449,cs),
(266,449,o),
(228,424,o),
(189,381,c),
(189,445,ls),
(189,451,o),
(185,451,o),
(179,451,c),
(118,438,o),
(123,438,o),
(55,438,c),
(55,411,l),
(111,411,o),
(111,403,o),
(111,367,cs),
(111,0,l),
(189,0,l),
(189,337,l),
(215,364,o),
(251,402,o),
(302,402,cs),
(353,402,o),
(386,381,o),
(386,338,cs),
(386,0,l),
(464,0,l),
(464,324,l),
(464,338,l)
);
},
{
pos = (111,0);
ref = LowerSerifBottomLeft;
},
{
pos = (189,0);
ref = LowerSerifBottomRight;
},
{
pos = (386,0);
ref = LowerSerifBottomLeft;
},
{
pos = (464,0);
ref = LowerSerifBottomRight;
},
{
pos = (661,1);
ref = LowerSerifBottomLeft;
},
{
pos = (739,1);
ref = LowerSerifBottomRight;
}
);
width = 839;
}
);
metricLeft = n;
metricRight = n;
unicode = 109;
},
{
glyphname = n;
lastChange = "2022-11-18 18:28:11 +0000";
layers = (
{
layerId = m01;
shapes = (
{
closed = 1;
nodes = (
(462,0,l),
(462,324,ls),
(462,413,o),
(401,449,o),
(325,449,cs),
(266,449,o),
(228,425,o),
(189,381,c),
(189,445,ls),
(189,451,o),
(185,451,o),
(179,451,c),
(118,438,o),
(123,438,o),
(55,438,c),
(55,411,l),
(111,411,o),
(111,403,o),
(111,367,cs),
(111,0,l),
(189,0,l),
(189,337,l),
(215,364,o),
(244,402,o),
(300,402,cs),
(354,402,o),
(384,381,o),
(384,338,cs),
(384,0,l)
);
},
{
pos = (111,0);
ref = LowerSerifBottomLeft;
},
{
pos = (189,0);
ref = LowerSerifBottomRight;
},
{
pos = (384,0);
ref = LowerSerifBottomLeft;
},
{
pos = (462,0);
ref = LowerSerifBottomRight;
}
);
width = 562;
}
);
unicode = 110;
},
{
glyphname = o;
lastChange = "2022-11-18 18:28:26 +0000";
layers = (
{
layerId = m01;
shapes = (
{
attr = {
fill = "1";
};
closed = 1;
nodes = (
(371,-16,o),
(464,91,o),
(464,222,cs),
(464,355,o),
(371,452,o),
(256,452,cs),
(141,452,o),
(48,345,o),
(48,222,cs),
(48,82,o),
(141,-16,o),
(256,-16,cs)
);
},
{
attr = {
fill = "1";
};
closed = 1;
nodes = (
(156,15,o),
(133,148,o),
(133,247,cs),
(133,350,o),
(166,421,o),
(249,421,cs),
(356,421,o),
(379,294,o),
(379,195,cs),
(379,110,o),
(357,15,o),
(264,15,cs)
);
}
);
width = 512;
}
);
unicode = 111;
},
{
glyphname = p;
lastChange = "2022-11-18 18:29:34 +0000";
layers = (
{
hints = (
{
horizontal = 1;
origin = (0,17);
target = down;
type = TopGhost;
}
);
layerId = m01;
shapes = (
{
closed = 1;
nodes = (
(189,-216,l),
(189,5,l),
(217,-9,o),
(245,-17,o),
(278,-17,cs),
(410,-17,o),
(488,72,o),
(488,212,cs),
(488,348,o),
(417,451,o),
(278,451,cs),
(233,451,o),
(199,425,o),
(189,415,c),
(189,455,ls),
(189,461,o),
(184,461,o),
(178,461,c),
(117,448,o),
(123,448,o),
(55,448,c),
(55,421,l),
(111,421,o),
(111,413,o),
(111,377,cs),
(111,-216,l)
);
},
{
pos = (111,-216);
ref = LowerSerifBottomLeft;
},
{
pos = (189,-216);
ref = LowerSerifBottomRight;
},
{
closed = 1;
nodes = (
(233,14,o),
(186,31,o),
(186,77,cs),
(183,362,l),
(196,398,o),
(238,426,o),
(278,426,cs),
(370,426,o),
(403,299,o),
(403,209,cs),
(403,181,o),
(400,150,o),
(397,130,cs),
(385,58,o),
(349,14,o),
(281,14,cs)
);
}
);
width = 536;
}
);
metricLeft = n;
metricRight = o;
unicode = 112;
},
{
glyphname = q;
lastChange = "2022-11-18 18:29:37 +0000";
layers = (
{
layerId = m01;
shapes = (
{
closed = 1;
nodes = (
(425,-216,l),
(425,377,ls),
(425,413,o),
(425,421,o),
(481,421,c),
(481,448,l),
(413,448,o),
(419,448,o),
(358,461,c),
(352,461,o),
(347,461,o),
(347,455,cs),
(347,415,l),
(337,425,o),
(303,451,o),
(258,451,cs),
(119,451,o),
(48,348,o),
(48,212,cs),
(48,72,o),
(126,-17,o),
(258,-17,cs),
(291,-17,o),
(319,-9,o),
(347,5,c),
(347,-216,l)
);
},
{
pos = (347,-216);
ref = LowerSerifBottomLeft;
},
{
pos = (425,-216);
ref = LowerSerifBottomRight;
},
{
closed = 1;
nodes = (
(187,14,o),
(151,58,o),
(139,130,cs),
(136,150,o),
(133,181,o),
(133,209,cs),
(133,299,o),
(166,426,o),
(258,426,cs),
(298,426,o),
(340,398,o),
(353,362,c),
(350,77,ls),
(350,31,o),
(303,14,o),
(255,14,cs)
);
}
);
width = 525;
}
);
metricLeft = o;
metricRight = n;
unicode = 113;
},
{
glyphname = r;
lastChange = "2022-11-18 18:29:40 +0000";
layers = (
{
layerId = m01;
shapes = (
{
pos = (111,0);
ref = LowerSerifBottomLeft;
},
{
pos = (189,0);
ref = LowerSerifBottomRight;
},
{
closed = 1;
nodes = (
(189,261,o),
(231,392,o),
(310,392,cs),
(351,392,o),
(357,374,o),
(375,374,cs),
(400,374,o),
(423,386,o),
(424,412,cs),
(425,433,o),
(410,452,o),
(388,453,cs),
(275,456,o),
(202,367,o),
(202,367,c),
(189,445,ls),
(188,451,o),
(185,451,o),
(179,451,c),
(118,438,o),
(123,438,o),
(55,438,c),
(55,411,l),
(111,411,o),
(111,403,o),
(111,367,cs),
(111,0,l),
(189,0,l),
(189,150,ls)
);
}
);
width = 472;
}
);
metricLeft = n;
metricRight = o;
unicode = 114;
},
{
color = 9;
glyphname = s;
lastChange = "2022-11-18 20:51:09 +0000";
layers = (
{
background = {
shapes = (
{
closed = 0;
nodes = (
(123,54,l),
(123,16,l)
);
},
{
closed = 1;
nodes = (
(115,21,o),
(84,41,o),
(82,1,c),
(63,1,l),
(72,4,o),
(66,142,o),
(56,141,c),
(76,141,l),
(83,104,o),
(95,91,o),
(101,83,cs),
(123,54,l),
(123,16,l)
);
}
);
};
layerId = m01;
shapes = (
{
closed = 1;
nodes = (
(142,18,o),
(70,107,o),
(70,155,c),
(48,155,l),
(48,128,o),
(50,38,o),
(50,12,c),
(71,12,l),
(71,28,o),
(76,36,o),
(86,36,cs),
(109,36,o),
(133,-17,o),
(210,-17,cs),
(286,-17,o),
(362,39,o),
(362,108,cs),
(362,170,o),
(337,191,o),
(287,220,c),
(270,228,o),
(212,258,o),
(180,274,c),
(148,289,o),
(124,309,o),
(124,343,cs),
(124,387,o),
(169,417,o),
(214,417,cs),
(275,418,o),
(316,373,o),
(316,313,c),
(337,313,l),
(337,340,o),
(335,426,o),
(335,451,c),
(314,451,l),
(314,428,o),
(304,430,o),
(295,430,cs),
(270,430,o),
(263,450,o),
(213,450,cs),
(114,450,o),
(69,382,o),
(69,324,cs),
(69,268,o),
(93,234,o),
(126,219,c),
(237,165,l),
(255,156,o),
(296,136,o),
(296,100,cs),
(296,38,o),
(255,18,o),
(213,18,cs)
);
}
);
width = 410;
}
);
metricLeft = o;
metricRight = o;
unicode = 115;
},
{
glyphname = t;
lastChange = "2022-11-18 18:29:45 +0000";
layers = (
{
hints = (
{
place = (381, 30);
place = (381, 30);
type = Stem;
}
);
layerId = m01;
shapes = (
{
closed = 1;
nodes = (
(99,36,o),
(125,-18,o),
(230,-18,cs),
(272,-18,o),
(301,6,o),
(318,21,c),
(307,42,l),
(273,25,o),
(251,16,o),
(230,16,cs),
(185,17,o),
(176,46,o),
(176,130,cs),
(176,423,l),
(282,423,l),
(282,462,l),
(176,462,l),
(176,592,l),
(149,592,l),
(149,515,o),
(92,451,o),
(35,462,c),
(35,423,l),
(99,423,l),
(99,124,ls)
);
}
);
width = 342;
}
);
metricLeft = n;
metricRight = n;
unicode = 116;
},
{
glyphname = u;
lastChange = "2022-11-18 18:29:48 +0000";
layers = (
{
layerId = m01;
shapes = (
{
closed = 1;
nodes = (
(454,464,o),
(450,464,o),
(444,464,c),
(383,451,o),
(388,451,o),
(320,451,c),
(320,424,l),
(376,424,o),
(376,416,o),
(376,380,cs),
(376,98,l),
(350,71,o),
(309,33,o),
(253,33,cs),
(199,33,o),
(169,54,o),
(169,97,cs),
(169,458,ls),
(169,464,o),
(165,464,o),
(159,464,c),
(98,451,o),
(103,451,o),
(35,451,c),
(35,424,l),
(91,424,o),
(91,416,o),
(91,366,cs),
(91,120,ls),
(91,0,o),
(159,-16,o),
(253,-14,cs),
(309,-13,o),
(349,17,o),
(376,54,c),
(376,0,l),
(454,0,l),
(454,458,l)
);
},
{
pos = (454,0);
ref = LowerSerifBottomRight;
}
);
width = 554;
}
);
metricLeft = n;
metricRight = n;
unicode = 117;
},
{
glyphname = v;
lastChange = "2022-11-18 18:29:51 +0000";
layers = (
{
hints = (
{
name = _corner.rightSerif;
options = 1;
origin = (0,2);
scale = (0.73,1);
type = Corner;
},
{
name = _corner.leftSerif;
origin = (0,1);
scale = (0.73,1);
type = Corner;
},
{
name = _corner.rightSerif;
options = 1;
origin = (1,2);
scale = (0.73,1);
type = Corner;
},
{
name = _corner.leftSerif;
origin = (1,1);
scale = (0.73,1);
type = Corner;
}
);
layerId = m01;
shapes = (
{
closed = 1;
nodes = (
(312,47,l),
(184,435,l),
(107,435,l),
(266,-15,l)
);
},
{
closed = 1;
nodes = (
(305,-15,l),
(464,435,l),
(423,435,l),
(266,-15,l)
);
}
);
width = 554;
}
);
metricLeft = n;
metricRight = n;
unicode = 118;
},
{
glyphname = w;
lastChange = "2022-11-18 18:29:53 +0000";
layers = (
{
hints = (
{
name = _corner.rightSerif;
options = 1;
origin = (0,0);
scale = (0.73,1);
type = Corner;
},
{
name = _corner.leftSerif;
origin = (0,9);
scale = (0.73,1);
type = Corner;
},
{
name = _corner.rightSerif;
options = 1;
origin = (0,7);
scale = (0.73,1);
type = Corner;
},
{
name = _corner.leftSerif;
origin = (0,6);
scale = (0.73,1);
type = Corner;
}
);
layerId = m01;
shapes = (
{
closed = 1;
nodes = (
(107,435,l),
(266,-15,l),
(305,-15,l),
(391,221,l),
(475,-16,l),
(514,-16,l),
(673,434,l),
(632,434,l),
(509,82,l),
(393,434,l),
(325,434,ls),
(307,434,o),
(276,435,o),
(244,435,cs),
(218,435,o),
(193,435,o),
(175,435,cs)
);
},
{
closed = 1;
nodes = (
(191,413,o),
(204,410,o),
(250,410,cs),
(297,410,o),
(324,412,o),
(352,332,cs),
(371,278,l),
(301,82,l),
(218,332,ls)
);
}
);
width = 763;
}
);
metricLeft = n;
metricRight = n;
unicode = 119;
},
{
glyphname = x;
lastChange = "2022-11-18 18:29:56 +0000";
layers = (
{
hints = (
{
name = _corner.rightSerif;
options = 1;
origin = (0,0);
scale = (0.7,1);
type = Corner;
},
{
name = _corner.leftSerif;
origin = (0,2);
scale = (0.8,1);
type = Corner;
},
{
name = _corner.rightSerif;
options = 1;
origin = (0,3);
scale = (0.5,1);
type = Corner;
},
{
name = _corner.leftSerif;
origin = (0,5);
scale = (0.5,1);
type = Corner;
},
{
name = _corner.rightSerif;
options = 1;
origin = (0,6);
type = Corner;
},
{
name = _corner.leftSerif;
origin = (0,8);
scale = (0.7,1);
type = Corner;
},
{
name = _corner.rightSerif;
options = 1;
origin = (0,9);
scale = (0.5,1);
type = Corner;
},
{
name = _corner.leftSerif;
origin = (0,11);
scale = (0.6,1);
type = Corner;
}
);
layerId = m01;
shapes = (
{
closed = 1;
nodes = (
(139,0,l),
(292,178,l),
(414,0,l),
(497,0,l),
(334,228,l),
(492,435,l),
(452,435,l),
(307,256,l),
(176,435,l),
(93,435,l),
(264,209,l),
(90,0,l)
);
}
);
width = 570;
}
);
metricLeft = n;
metricRight = n;
unicode = 120;
},
{
glyphname = y;
lastChange = "2022-11-18 18:29:59 +0000";
layers = (
{
hints = (
{
name = _corner.rightSerif;
options = 1;
origin = (0,6);
scale = (0.73,1);
type = Corner;
},
{
name = _corner.leftSerif;
origin = (0,5);
scale = (0.73,1);
type = Corner;
},
{
name = _corner.leftSerif;
origin = (0,2);
scale = (0.73,1);
type = Corner;
},
{
name = _corner.rightSerif;
options = 1;
origin = (0,3);
scale = (0.8,1);
type = Corner;
}
);
layerId = m01;
shapes = (
{
closed = 1;
nodes = (
(283,-105,o),
(319,-15,cs),
(498,435,l),
(450,435,l),
(307,83,l),
(191,435,l),
(107,435,l),
(266,-15,l),
(234,-78,o),
(195,-145,o),
(154,-145,cs),
(124,-145,o),
(112,-163,o),
(112,-180,cs),
(112,-203,o),
(129,-218,o),
(150,-218,cs),
(234,-218,o)
);
}
);
width = 588;
}
);
metricLeft = n;
metricRight = n;
unicode = 121;
},
{
glyphname = z;
lastChange = "2022-11-18 18:30:01 +0000";
layers = (
{
layerId = m01;
shapes = (
{
closed = 1;
nodes = (
(343,0,l),
(343,39,l),
(125,39,l),
(346,396,l),
(346,435,l),
(91,435,l),
(91,396,l),
(255,396,l),
(35,39,l),
(35,0,l)
);
},
{
closed = 1;
nodes = (
(359,0,l),
(359,33,ls),
(359,53,o),
(361,92,o),
(361,119,c),
(336,119,l),
(336,68,o),
(328,39,o),
(244,39,c),
(244,0,l)
);
},
{
closed = 1;
nodes = (
(52,435,l),
(52,402,ls),
(52,382,o),
(50,343,o),
(50,316,c),
(75,316,l),
(75,367,o),
(83,396,o),
(167,396,c),
(167,435,l)
);
}
);
width = 385;
}
);
metricLeft = n;
metricRight = n;
unicode = 122;
},
{
color = 0;
glyphname = zero;
lastChange = "2022-11-18 19:31:04 +0000";
layers = (
{
layerId = m01;
shapes = (
{
attr = {
fill = "1";
};
closed = 1;
nodes = (
(440,-16,o),
(554,141,o),
(554,344,cs),
(554,550,o),
(440,710,o),
(297,710,cs),
(154,710,o),
(40,534,o),
(40,344,cs),
(40,127,o),
(154,-16,o),
(297,-16,cs)
);
},
{
attr = {
fill = "1";
};
closed = 1;
nodes = (
(186,36,o),
(133,167,o),
(133,344,cs),
(133,521,o),
(193,648,o),
(297,648,cs),
(401,648,o),
(460,521,o),
(460,344,cs),
(460,167,o),
(408,36,o),
(297,36,cs)
);
}
);
width = 594;
}
);
unicode = 48;
},
{
color = 0;
glyphname = one;
lastChange = "2022-11-18 19:31:04 +0000";
layers = (
{
layerId = m01;
shapes = (
{
closed = 1;
nodes = (
(274,0,l),
(343,0,l),
(343,670,l),
(343,675,o),
(340,675,o),
(335,675,c),
(280,664,o),
(235,644,o),
(175,644,c),
(175,624,l),
(224,624,o),
(274,622,o),
(274,590,cs)
);
},
{
pos = (274,0);
ref = LowerSerifBottomLeft;
},
{
pos = (343,0);
ref = LowerSerifBottomRight;
}
);
width = 594;
}
);
unicode = 49;
},
{
color = 0;
glyphname = two;
lastChange = "2022-11-18 19:31:04 +0000";
layers = (
{
hints = (
{
place = (55, 30);
place = (55, 30);
type = Stem;
}
);
layerId = m01;
shapes = (
{
closed = 1;
nodes = (
(402,0,l),
(402,65,l),
(172,65,l),
(405,361,l),
(495,480,o),
(494,514,o),
(494,554,cs),
(494,623,o),
(444,686,o),
(328,686,cs),
(224,686,o),
(153,632,o),
(109,574,c),
(117,565,o),
(125,534,o),
(130,503,c),
(149,508,l),
(160,565,o),
(213,631,o),
(292,631,cs),
(353,631,o),
(411,594,o),
(411,537,cs),
(411,500,o),
(385,454,o),
(352,405,c),
(261,270,o),
(109,45,o),
(92,33,c),
(84,0,l)
);
},
{
closed = 1;
nodes = (
(499,0,l),
(491,13,o),
(507,104,o),
(511,141,c),
(507,141,o),
(491,142,o),
(491,142,c),
(477,82,o),
(474,65,o),
(402,65,c),
(402,0,l)
);
},
{
closed = 0;
nodes = (
(116,598,l)
);
}
);
width = 594;
}
);
unicode = 50;
},
{
color = 0;
glyphname = three;
lastChange = "2022-11-18 19:31:04 +0000";
layers = (
{
layerId = m01;
shapes = (
{
closed = 1;
nodes = (
(119,502,l),
(111,530,o),
(111,563,o),
(94,583,c),
(132,629,o),
(195,689,o),
(309,688,cs),
(401,687,o),
(449,629,o),
(449,582,cs),
(449,520,o),
(427,459,o),
(307,389,c),
(418,376,o),
(499,332,o),
(499,241,cs),
(499,66,o),
(378,-26,o),
(118,-6,c),
(128,47,o),
(107,101,o),
(102,153,c),
(126,156,l),
(147,42,o),
(182,25,o),
(256,25,cs),
(299,25,o),
(416,52,o),
(416,207,cs),
(416,301,o),
(364,355,o),
(196,355,c),
(205,386,l),
(310,394,o),
(371,489,o),
(371,545,cs),
(371,596,o),
(350,636,o),
(276,636,cs),
(221,636,o),
(150,569,o),
(141,509,c)
);
}
);
width = 594;
}
);
unicode = 51;
},
{
color = 0;
glyphname = four;
lastChange = "2022-11-18 19:31:04 +0000";
layers = (
{
layerId = m01;
shapes = (
{
closed = 1;
nodes = (
(102,213,l),
(354,652,l),
(315,676,l),
(69,245,l),
(61,213,l)
);
},
{
pos = (316,0);
ref = LowerSerifBottomLeft;
},
{
pos = (387,0);
ref = LowerSerifBottomRight;
},
{
closed = 1;
nodes = (
(485,213,l),
(485,250,l),
(102,250,l),
(102,213,l)
);
},
{
closed = 1;
nodes = (
(386,0,l),
(386,676,l),
(316,676,l),
(316,0,l)
);
},
{
closed = 1;
nodes = (
(513,213,l),
(506,224,o),
(530,292,o),
(534,323,c),
(530,323,o),
(516,324,o),
(516,324,c),
(504,272,o),
(492,250,o),
(456,250,c),
(456,213,l)
);
},
{
closed = 1;
nodes = (
(386,608,o),
(385,647,o),
(414,662,c),
(414,676,l),
(386,676,l),
(386,579,l)
);
}
);
width = 594;
}
);
unicode = 52;
},
{
color = 0;
glyphname = five;
lastChange = "2022-11-18 19:31:04 +0000";
layers = (
{
hints = (
{
place = (412, 30);
place = (412, 30);
type = Stem;
}
);
layerId = m01;
shapes = (
{
closed = 1;
nodes = (
(408,230,o),
(408,207,cs),
(408,52,o),
(291,25,o),
(248,25,cs),
(174,25,o),
(139,42,o),
(119,155,c),
(94,152,l),
(99,101,o),
(121,47,o),
(110,-7,c),
(370,-26,o),
(491,66,o),
(491,240,cs),
(491,299,o),
(461,421,o),
(321,421,cs),
(218,421,o),
(178,378,o),
(178,386,c),
(225,612,l),
(303,612,o),
(339,612,o),
(447,612,c),
(467,644,o),
(474,670,o),
(499,688,c),
(499,704,l),
(468,682,o),
(410,673,o),
(388,673,cs),
(313,673,o),
(237,673,o),
(171,673,c),
(158,538,o),
(125,413,o),
(110,277,c),
(188,368,o),
(246,368,o),
(293,368,cs),
(404,368,o)
);
}
);
width = 594;
}
);
unicode = 53;
},
{
color = 0;
glyphname = six;
lastChange = "2022-11-18 19:31:04 +0000";
layers = (
{
layerId = m01;
shapes = (
{
attr = {
fill = "1";
};
closed = 1;
nodes = (
(410,-16,o),
(503,71,o),
(503,184,cs),
(503,299,o),
(410,386,o),
(299,386,cs),
(175,386,o),
(91,219,o),
(91,194,cs),
(91,43,o),
(180,-16,o),
(299,-16,cs)
);
},
{
attr = {
fill = "1";
};
closed = 1;
nodes = (
(204,35,o),
(171,103,o),
(171,150,cs),
(171,223,o),
(160,335,o),
(299,335,cs),
(381,335,o),
(423,281,o),
(423,184,cs),
(423,87,o),
(386,35,o),
(299,35,cs)
);
},
{
closed = 1;
nodes = (
(171,189,l),
(171,417,o),
(255,585,o),
(382,666,c),
(375,710,l),
(234,653,o),
(91,459,o),
(91,189,c)
);
}
);
width = 594;
}
);
unicode = 54;
},
{
color = 0;
glyphname = seven;
lastChange = "2022-11-18 19:31:04 +0000";
layers = (
{
layerId = m01;
shapes = (
{
closed = 1;
nodes = (
(103,614,l),
(478,614,l),
(478,684,l),
(103,684,l)
);
},
{
closed = 1;
nodes = (
(86,684,l),
(93,673,o),
(69,573,o),
(65,542,c),
(69,542,o),
(83,541,o),
(83,541,c),
(95,593,o),
(107,614,o),
(143,614,c),
(143,684,l)
);
},
{
closed = 1;
nodes = (
(256,0,l),
(276,92,o),
(431,467,o),
(529,684,c),
(478,684,l),
(375,456,o),
(189,52,o),
(181,0,c)
);
}
);
width = 594;
}
);
unicode = 55;
},
{
color = 0;
glyphname = eight;
lastChange = "2022-11-18 19:31:04 +0000";
layers = (
{
layerId = m01;
shapes = (
{
closed = 1;
nodes = (
(409,0,o),
(502,73,o),
(502,188,cs),
(502,285,o),
(452,361,o),
(366,392,c),
(431,417,o),
(470,457,o),
(470,529,cs),
(470,625,o),
(389,700,o),
(292,700,cs),
(195,700,o),
(114,618,o),
(114,529,cs),
(114,452,o),
(163,384,o),
(228,362,c),
(135,339,o),
(92,277,o),
(92,188,cs),
(92,65,o),
(175,0,o),
(292,0,cs)
);
},
{
closed = 1;
nodes = (
(173,254,o),
(181,333,o),
(262,349,c),
(301,344,o),
(337,338,o),
(368,320,cs),
(412,294,o),
(421,249,o),
(421,188,cs),
(421,104,o),
(383,30,o),
(292,30,cs),
(201,30,o),
(173,104,o),
(173,188,cs)
);
},
{
closed = 1;
nodes = (
(186,611,o),
(221,671,o),
(292,671,cs),
(363,671,o),
(398,611,o),
(398,529,cs),
(398,466,o),
(381,425,o),
(337,405,c),
(286,416,o),
(239,421,o),
(206,460,cs),
(191,477,o),
(186,503,o),
(186,529,cs)
);
}
);
width = 594;
}
);
unicode = 56;
},
{
color = 0;
glyphname = nine;
lastChange = "2022-11-18 19:31:04 +0000";
layers = (
{
layerId = m01;
shapes = (
{
attr = {
fill = "1";
};
closed = 1;
nodes = (
(184,710,o),
(90,623,o),
(90,510,cs),
(90,395,o),
(184,307,o),
(295,307,cs),
(418,307,o),
(503,475,o),
(503,500,cs),
(503,651,o),
(415,710,o),
(295,710,cs)
);
},
{
attr = {
fill = "1";
};
closed = 1;
nodes = (
(390,659,o),
(423,592,o),
(423,544,cs),
(423,470,o),
(434,359,o),
(295,359,cs),
(213,359,o),
(171,412,o),
(171,510,cs),
(171,607,o),
(208,659,o),
(295,659,cs)
);
},
{
closed = 1;
nodes = (
(423,505,l),
(423,277,o),
(339,109,o),
(212,28,c),
(218,-16,l),
(360,41,o),
(503,235,o),
(503,505,c)
);
}
);
width = 594;
}
);
unicode = 57;
},
{
color = 0;
glyphname = zero.osf;
lastChange = "2022-11-18 19:31:04 +0000";
layers = (
{
layerId = m01;
shapes = (
{
attr = {
fill = "1";
};
closed = 1;
nodes = (
(389,-10,o),
(486,97,o),
(486,220,c),
(486,345,o),
(389,451,o),
(267,451,cs),
(145,451,o),
(48,335,o),
(48,220,c),
(48,89,o),
(145,-10,o),
(267,-10,cs)
);
},
{
attr = {
fill = "1";
};
closed = 1;
nodes = (
(191,48,o),
(127,114,o),
(127,220,cs),
(127,317,o),
(192,394,o),
(267,394,cs),
(342,394,o),
(406,317,o),
(406,220,cs),
(406,114,o),
(343,48,o),
(267,48,cs)
);
}
);
width = 534;
}
);
metricLeft = o;
metricRight = o;
tags = (
"Clean up"
);
},
{
color = 0;
glyphname = one.osf;
lastChange = "2022-11-18 19:31:04 +0000";
layers = (
{
layerId = m01;
shapes = (
{
closed = 1;
nodes = (
(203,0,l),
(203,441,ls),
(203,446,o),
(200,446,o),
(195,446,c),
(140,435,o),
(95,415,o),
(35,415,c),
(35,395,l),
(84,395,o),
(134,393,o),
(134,361,cs),
(134,0,l)
);
},
{
pos = (134,0);
ref = LowerSerifBottomLeft;
},
{
pos = (203,0);
ref = LowerSerifBottomRight;
}
);
width = 303;
}
);
metricLeft = n;
metricRight = n;
tags = (
"Clean up"
);
},
{
color = 0;
glyphname = two.osf;
lastChange = "2022-11-18 19:31:04 +0000";
layers = (
{
layerId = m01;
shapes = (
{
closed = 1;
nodes = (
(307,0,l),
(307,57,l),
(126,57,l),
(269,229,l),
(326,304,o),
(325,326,o),
(325,351,cs),
(325,395,o),
(273,442,o),
(200,442,cs),
(134,442,o),
(89,401,o),
(61,364,c),
(66,358,o),
(69,339,o),
(72,319,c),
(92,322,l),
(102,375,o),
(130,399,o),
(180,399,cs),
(219,399,o),
(252,383,o),
(252,341,cs),
(252,317,o),
(239,288,o),
(218,257,c),
(160,171,o),
(64,29,o),
(53,21,c),
(48,0,l)
);
},
{
closed = 1;
nodes = (
(368,0,l),
(363,8,o),
(380,96,o),
(383,132,c),
(378,132,o),
(363,134,o),
(363,134,c),
(354,74,o),
(352,57,o),
(307,57,c),
(307,0,l)
);
},
{
closed = 0;
nodes = (
(65,379,l)
);
}
);
width = 407;
}
);
metricLeft = o;
metricRight = n;
tags = (
"Clean up"
);
},
{
color = 0;
glyphname = three.osf;
lastChange = "2022-11-18 19:31:04 +0000";
layers = (
{
layerId = m01;
shapes = (
{
closed = 1;
nodes = (
(70,279,l),
(63,305,o),
(63,335,o),
(48,353,c),
(82,395,o),
(139,449,o),
(243,448,cs),
(326,447,o),
(370,395,o),
(370,352,cs),
(370,296,o),
(350,240,o),
(241,177,c),
(342,165,o),
(415,125,o),
(415,42,cs),
(415,-116,o),
(305,-200,o),
(69,-182,c),
(79,-134,o),
(59,-85,o),
(55,-38,c),
(77,-35,l),
(96,-138,o),
(128,-154,o),
(195,-154,cs),
(234,-154,o),
(340,-129,o),
(340,11,cs),
(340,97,o),
(293,146,o),
(140,146,c),
(148,174,l),
(244,181,o),
(299,267,o),
(299,318,cs),
(299,365,o),
(280,401,o),
(213,401,cs),
(163,401,o),
(99,340,o),
(90,286,c)
);
}
);
width = 463;
}
);
metricLeft = o;
metricRight = o;
},
{
color = 0;
glyphname = four.osf;
lastChange = "2022-11-18 19:31:04 +0000";
layers = (
{
layerId = m01;
shapes = (
{
closed = 1;
nodes = (
(81,26,l),
(296,414,l),
(265,435,l),
(54,54,l),
(48,26,l)
);
},
{
closed = 1;
nodes = (
(399,26,l),
(399,59,l),
(81,59,l),
(81,26,l)
);
},
{
closed = 1;
nodes = (
(319,-162,l),
(319,435,l),
(266,435,l),
(266,-162,l)
);
},
{
closed = 1;
nodes = (
(422,26,l),
(417,35,o),
(436,95,o),
(439,124,c),
(436,124,o),
(424,125,o),
(424,125,c),
(415,78,o),
(405,59,o),
(375,59,c),
(375,26,l)
);
},
{
closed = 1;
nodes = (
(319,375,o),
(318,410,o),
(342,423,c),
(342,435,l),
(319,435,l),
(319,350,l)
);
},
{
pos = (319,-162);
ref = LowerSerifBottomRight;
scale = (0.9621,1.1453);
},
{
pos = (266,-162);
ref = LowerSerifBottomLeft;
scale = (0.9621,1.1453);
}
);
width = 487;
}
);
metricLeft = o;
metricRight = o;
},
{
color = 0;
glyphname = five.osf;
lastChange = "2022-11-18 19:31:04 +0000";
layers = (
{
layerId = m01;
shapes = (
{
closed = 1;
nodes = (
(287,78,o),
(287,60,cs),
(287,-65,o),
(193,-87,o),
(159,-87,cs),
(99,-87,o),
(71,-73,o),
(54,19,c),
(35,16,l),
(39,-25,o),
(56,-69,o),
(48,-112,c),
(257,-128,o),
(353,-54,o),
(353,86,cs),
(353,134,o),
(329,232,o),
(218,232,cs),
(135,232,o),
(102,197,o),
(102,203,c),
(140,385,l),
(202,385,o),
(232,385,o),
(319,385,c),
(336,412,o),
(341,432,o),
(360,447,c),
(360,459,l),
(336,442,o),
(288,435,o),
(271,435,cs),
(210,435,o),
(149,435,o),
(97,435,c),
(85,326,o),
(59,226,o),
(48,117,c),
(110,188,o),
(157,188,o),
(194,188,cs),
(284,188,o)
);
}
);
width = 408;
}
);
metricLeft = n;
metricRight = o;
},
{
color = 0;
glyphname = six.osf;
lastChange = "2022-11-18 19:31:04 +0000";
layers = (
{
layerId = m01;
shapes = (
{
attr = {
fill = "1";
};
closed = 1;
nodes = (
(302,-16,o),
(376,53,o),
(376,143,cs),
(376,234,o),
(302,303,o),
(214,303,cs),
(115,303,o),
(48,171,o),
(48,151,cs),
(48,31,o),
(119,-16,o),
(214,-16,cs)
);
},
{
attr = {
fill = "1";
};
closed = 1;
nodes = (
(138,25,o),
(112,79,o),
(112,116,cs),
(112,174,o),
(103,263,o),
(214,263,cs),
(279,263,o),
(312,220,o),
(312,143,cs),
(312,66,o),
(283,25,o),
(214,25,cs)
);
},
{
closed = 1;
nodes = (
(112,147,l),
(112,328,o),
(179,462,o),
(280,526,c),
(274,561,l),
(162,516,o),
(48,361,o),
(48,147,c)
);
}
);
width = 424;
}
);
metricLeft = o;
metricRight = o;
},
{
color = 0;
glyphname = seven.osf;
lastChange = "2022-11-18 19:31:04 +0000";
layers = (
{
layerId = m01;
shapes = (
{
closed = 1;
nodes = (
(64,381,l),
(352,381,l),
(352,435,l),
(64,435,l)
);
},
{
closed = 1;
nodes = (
(51,435,l),
(56,427,o),
(38,349,o),
(35,325,c),
(38,325,o),
(48,324,o),
(48,324,c),
(58,364,o),
(67,381,o),
(95,381,c),
(95,435,l)
);
},
{
closed = 1;
nodes = (
(181,-100,l),
(197,-28,o),
(315,265,o),
(391,435,c),
(352,435,l),
(273,257,o),
(131,-59,o),
(124,-100,c)
);
}
);
width = 439;
}
);
metricLeft = n;
metricRight = o;
},
{
color = 0;
glyphname = eight.osf;
lastChange = "2022-11-18 19:31:04 +0000";
layers = (
{
layerId = m01;
shapes = (
{
closed = 1;
nodes = (
(309,0,o),
(386,60,o),
(386,155,cs),
(386,235,o),
(345,298,o),
(274,323,c),
(327,344,o),
(360,377,o),
(360,436,cs),
(360,515,o),
(293,577,o),
(213,577,cs),
(133,577,o),
(66,509,o),
(66,436,cs),
(66,373,o),
(107,317,o),
(160,298,c),
(83,279,o),
(48,228,o),
(48,155,cs),
(48,54,o),
(116,0,o),
(213,0,cs)
);
},
{
closed = 1;
nodes = (
(115,209,o),
(121,274,o),
(188,288,c),
(220,284,o),
(250,279,o),
(276,264,cs),
(312,242,o),
(319,205,o),
(319,155,cs),
(319,86,o),
(288,25,o),
(213,25,cs),
(138,25,o),
(115,86,o),
(115,155,cs)
);
},
{
closed = 1;
nodes = (
(126,504,o),
(154,553,o),
(213,553,cs),
(271,553,o),
(300,504,o),
(300,436,cs),
(300,384,o),
(286,350,o),
(250,334,c),
(208,343,o),
(169,347,o),
(142,379,cs),
(130,393,o),
(126,415,o),
(126,436,cs)
);
}
);
width = 434;
}
);
metricLeft = o;
metricRight = o;
},
{
color = 0;
glyphname = nine.osf;
lastChange = "2022-11-18 19:31:04 +0000";
layers = (
{
layerId = m01;
shapes = (
{
attr = {
fill = "1";
};
closed = 1;
nodes = (
(123,450,o),
(48,381,o),
(48,291,cs),
(48,200,o),
(123,130,o),
(211,130,cs),
(309,130,o),
(377,263,o),
(377,283,cs),
(377,403,o),
(307,450,o),
(211,450,cs)
);
},
{
attr = {
fill = "1";
};
closed = 1;
nodes = (
(287,409,o),
(313,356,o),
(313,318,cs),
(313,259,o),
(322,171,o),
(211,171,cs),
(146,171,o),
(113,213,o),
(113,291,cs),
(113,368,o),
(142,409,o),
(211,409,cs)
);
},
{
closed = 1;
nodes = (
(313,287,l),
(313,106,o),
(246,-28,o),
(145,-92,c),
(150,-127,l),
(263,-82,o),
(377,72,o),
(377,287,c)
);
}
);
width = 425;
}
);
metricLeft = o;
metricRight = o;
},
{
glyphname = period;
lastChange = "2022-11-18 15:52:12 +0000";
layers = (
{
layerId = m01;
shapes = (
{
closed = 1;
nodes = (
(124,-8,o),
(146,14,o),
(146,40,cs),
(146,67,o),
(124,89,o),
(95,89,cs),
(67,89,o),
(45,67,o),
(45,40,cs),
(45,14,o),
(67,-8,o),
(95,-8,cs)
);
}
);
width = 191;
}
);
metricLeft = O;
metricRight = O;
unicode = 46;
},
{
glyphname = comma;
lastChange = "2022-11-18 18:40:31 +0000";
layers = (
{
layerId = m01;
shapes = (
{
closed = 1;
nodes = (
(104,-10,o),
(110,-12,o),
(110,-20,cs),
(110,-31,o),
(94,-53,o),
(48,-67,c),
(56,-93,l),
(135,-69,o),
(156,-32,o),
(156,8,cs),
(156,52,o),
(127,70,o),
(101,70,cs),
(76,70,o),
(56,52,o),
(56,30,cs),
(56,8,o),
(76,-10,o),
(101,-10,cs)
);
}
);
width = 201;
}
);
metricLeft = o;
metricRight = O;
unicode = 44;
},
{
glyphname = exclam;
lastChange = "2022-11-18 15:56:29 +0000";
layers = (
{
layerId = m01;
shapes = (
{
ref = period;
},
{
closed = 1;
nodes = (
(118,234,o),
(122,343,o),
(127,425,o),
(137,488,o),
(143,520,qs),
(148,550,o),
(155,588,o),
(158,614,o),
(158,638,o),
(158,651,qs),
(158,678,o),
(123,716,o),
(94,716,qs),
(65,716,o),
(30,678,o),
(30,651,qs),
(30,637,o),
(31,614,o),
(34,588,o),
(41,551,o),
(45,524,qs),
(51,490,o),
(61,425,o),
(67,343,o),
(70,234,o),
(70,155,q),
(118,155,l)
);
}
);
width = 191;
}
);
unicode = 33;
},
{
color = 3;
glyphname = question;
lastChange = "2022-11-18 19:30:58 +0000";
layers = (
{
layerId = m01;
shapes = (
{
closed = 1;
nodes = (
(206,169,l),
(206,350,l),
(304,350,o),
(367,401,o),
(367,520,cs),
(367,656,o),
(293,711,o),
(222,711,cs),
(143,711,o),
(97,682,o),
(73,641,cs),
(63,622,o),
(69,599,o),
(87,588,cs),
(109,575,o),
(129,588,o),
(142,610,cs),
(156,633,o),
(160,671,o),
(204,671,cs),
(269,671,o),
(291,620,o),
(291,566,cs),
(291,462,o),
(239,419,o),
(154,419,c),
(153,169,l)
);
},
{
pos = (77,0);
ref = period;
}
);
width = 412;
}
);
metricLeft = "=O*1.5";
metricRight = O;
unicode = 63;
},
{
glyphname = hyphen;
lastChange = "2022-11-18 18:46:52 +0000";
layers = (
{
layerId = m01;
shapes = (
{
closed = 1;
nodes = (
(56,286,l),
(56,217,l),
(357,217,l),
(357,286,l)
);
}
);
width = 413;
}
);
metricLeft = "=O*1.25";
metricRight = "=O*1.25";
unicode = 45;
},
{
glyphname = quotedbl;
lastChange = "2022-11-18 18:54:33 +0000";
layers = (
{
layerId = m01;
shapes = (
{
closed = 1;
nodes = (
(102,631,l),
(110,682,o),
(126,706,o),
(126,745,cs),
(126,768,o),
(111,786,o),
(86,786,cs),
(61,786,o),
(45,768,o),
(45,745,cs),
(45,712,o),
(61,685,o),
(70,631,c)
);
},
{
closed = 1;
nodes = (
(212,631,l),
(220,682,o),
(236,706,o),
(236,745,cs),
(236,768,o),
(221,786,o),
(196,786,cs),
(171,786,o),
(155,768,o),
(155,745,cs),
(155,712,o),
(171,685,o),
(180,631,c)
);
}
);
width = 281;
}
);
metricLeft = O;
metricRight = O;
unicode = 34;
},
{
glyphname = quotesingle;
lastChange = "2022-11-18 18:53:55 +0000";
layers = (
{
layerId = m01;
shapes = (
{
closed = 1;
nodes = (
(102,631,l),
(110,682,o),
(126,706,o),
(126,745,cs),
(126,768,o),
(111,786,o),
(86,786,cs),
(61,786,o),
(45,768,o),
(45,745,cs),
(45,712,o),
(61,685,o),
(70,631,c)
);
}
);
width = 171;
}
);
metricLeft = O;
metricRight = O;
unicode = 39;
},
{
glyphname = plus;
lastChange = "2022-11-18 18:51:12 +0000";
layers = (
{
layerId = m01;
shapes = (
{
closed = 1;
nodes = (
(66,366,l),
(66,324,l),
(528,324,l),
(528,366,l)
);
},
{
closed = 1;
nodes = (
(276,114,l),
(318,114,l),
(318,576,l),
(276,576,l)
);
}
);
width = 594;
}
);
unicode = 43;
},
{
glyphname = minus;
lastChange = "2022-11-18 18:51:16 +0000";
layers = (
{
layerId = m01;
shapes = (
{
closed = 1;
nodes = (
(76,366,l),
(76,324,l),
(518,324,l),
(518,366,l)
);
}
);
width = 594;
}
);
unicode = 8722;
},
{
glyphname = equal;
lastChange = "2022-11-18 18:48:22 +0000";
layers = (
{
layerId = m01;
shapes = (
{
closed = 1;
nodes = (
(76,286,l),
(76,244,l),
(518,244,l),
(518,286,l)
);
},
{
closed = 1;
nodes = (
(76,409,l),
(76,367,l),
(518,367,l),
(518,409,l)
);
}
);
width = 594;
}
);
unicode = 61;
},
{
export = 0;
glyphname = _corner.leftSerif;
lastChange = "2022-11-18 16:59:19 +0000";
layers = (
{
layerId = m01;
shapes = (
{
closed = 0;
nodes = (
(0,120,l),
(0,35,o),
(-27,25,o),
(-91,25,c),
(-91,-2,l),
(-56,-2,o),
(-12,0,o),
(13,0,c)
);
}
);
width = 200;
}
);
},
{
export = 0;
glyphname = _corner.rightSerif;
lastChange = "2022-11-18 16:59:23 +0000";
layers = (
{
layerId = m01;
shapes = (
{
closed = 0;
nodes = (
(-13,0,l),
(12,0,o),
(63,-2,o),
(98,-2,c),
(98,25,l),
(34,25,o),
(0,35,o),
(0,120,c)
);
}
);
width = 200;
}
);
},
{
export = 0;
glyphname = LowerSerifBottomLeft;
lastChange = "2022-11-18 16:59:34 +0000";
layers = (
{
layerId = m01;
shapes = (
{
closed = 1;
nodes = (
(0,120,l),
(0,35,o),
(-26,25,o),
(-76,25,c),
(-76,-2,l),
(-41,-2,o),
(-12,0,o),
(13,0,c)
);
}
);
width = 600;
}
);
},
{
export = 0;
glyphname = LowerSerifBottomRight;
lastChange = "2022-11-18 16:59:55 +0000";
layers = (
{
layerId = m01;
shapes = (
{
closed = 1;
nodes = (
(12,0,o),
(41,-2,o),
(76,-2,c),
(76,25,l),
(26,25,o),
(0,35,o),
(0,120,c),
(-13,0,l)
);
}
);
width = 80;
}
);
},
{
export = 0;
glyphname = SerifBottomLeft;
lastChange = "2022-11-18 17:00:01 +0000";
layers = (
{
layerId = m01;
shapes = (
{
closed = 1;
nodes = (
(0,120,l),
(0,35,o),
(-32,26,o),
(-96,26,c),
(-96,-2,l),
(-51,-2,o),
(-12,0,o),
(13,0,c)
);
}
);
width = 17;
}
);
},
{
export = 0;
glyphname = SerifBottomRight;
lastChange = "2022-11-18 17:00:15 +0000";
layers = (
{
layerId = m01;
shapes = (
{
closed = 1;
nodes = (
(12,0,o),
(51,-2,o),
(96,-2,c),
(96,25,l),
(32,25,o),
(0,34,o),
(0,119,c),
(-13,0,l)
);
}
);
width = 100;
}
);
},
{
export = 0;
glyphname = SerifDownEF;
lastChange = "2022-11-18 17:00:34 +0000";
layers = (
{
layerId = m01;
shapes = (
{
closed = 1;
nodes = (
(125,0,l),
(125,-42,ls),
(125,-67,o),
(127,-116,o),
(127,-151,c),
(100,-151,l),
(100,-87,o),
(91,-42,o),
(0,-42,c),
(0,0,l)
);
}
);
width = 124;
}
);
},
{
export = 0;
glyphname = SerifSpur;
lastChange = "2022-11-18 15:42:09 +0000";
layers = (
{
layerId = m01;
shapes = (
{
closed = 1;
nodes = (
(0,-42,l),
(-36,-42,o),
(-43,-93,o),
(-43,-165,c),
(-70,-165,l),
(-70,-130,o),
(-68,-43,o),
(-68,0,c),
(0,0,l)
);
}
);
width = 204;
}
);
},
{
export = 0;
glyphname = SerifUpLeft;
lastChange = "2022-11-18 02:42:45 +0000";
layers = (
{
layerId = m01;
shapes = (
{
closed = 1;
nodes = (
(-8,5,o),
(-39,25,o),
(-41,-15,c),
(-60,-15,l),
(-51,-12,o),
(-67,166,o),
(-77,165,c),
(-57,165,l),
(-57,123,o),
(-37,89,o),
(-22,67,c),
(0,38,l),
(0,0,l)
);
}
);
width = 4;
}
);
},
{
export = 0;
glyphname = SerifUpRight;
lastChange = "2022-11-18 17:00:56 +0000";
layers = (
{
layerId = m01;
shapes = (
{
closed = 1;
nodes = (
(113,0,l),
(113,25,o),
(111,86,o),
(111,191,c),
(84,191,l),
(84,111,o),
(50,42,o),
(0,42,c),
(0,0,l)
);
}
